<?xml version="1.0" encoding="utf-8"?>
<!-- Generator: Adobe Illustrator 24.1.1, SVG Export Plug-In . SVG Version: 6.00 Build 0)  -->
<svg version="1.1" xmlns="http://www.w3.org/2000/svg" xmlns:xlink="http://www.w3.org/1999/xlink" x="0px" y="0px"
	 viewBox="0 0 500 500" style="enable-background:new 0 0 500 500;" xml:space="preserve">
<style type="text/css">
	.st0{fill:#E580E2;}
	.st1{fill:#4AD7E5;}
	.st2{fill:#1D487C;}
	.st3{fill:#7CE6B1;}
	.st4{fill:#EBF5F7;}
	.st5{fill:#DDE6E8;}
	.st6{fill:#F9AE37;}
	.st7{fill:#F86162;}
	.st8{fill:#63DBF8;}
	.st9{fill:#F98AB4;}
</style>
<g id="objects">
	<path class="st0" d="M69.89,287.37l2.44,1.75c0.56-0.78,1.31-1.41,2.18-1.83l-1.3-2.7C71.89,285.22,70.74,286.18,69.89,287.37z
		 M68.33,293.59c0.19,1.45,0.75,2.84,1.62,4.02l2.42-1.78c-0.57-0.77-0.93-1.68-1.06-2.63L68.33,293.59z M79.6,284.13l-0.9,2.86
		c0.91,0.29,1.75,0.81,2.41,1.5l2.17-2.08C82.26,285.35,80.99,284.56,79.6,284.13z M75.93,298.07l-0.55,2.95
		c0.53,0.1,1.07,0.15,1.61,0.15c0.93,0,1.84-0.15,2.71-0.43l-0.93-2.85C77.86,298.18,76.86,298.25,75.93,298.07z M85.7,292.34
		l-3,0.11c0,0.96-0.24,1.91-0.7,2.75l2.63,1.45c0.7-1.28,1.07-2.73,1.07-4.2L85.7,292.34z"/>
	<g>
		<g>
			
				<ellipse transform="matrix(0.7071 -0.7071 0.7071 0.7071 -241.2103 184.1263)" class="st1" cx="101.66" cy="383.23" rx="15.69" ry="15.69"/>
			<path class="st2" d="M101.66,400.42c-9.48,0-17.19-7.71-17.19-17.19c0-9.48,7.71-17.19,17.19-17.19
				c9.48,0,17.19,7.71,17.19,17.19C118.85,392.71,111.13,400.42,101.66,400.42z M101.66,369.04c-7.83,0-14.19,6.37-14.19,14.19
				c0,7.83,6.37,14.19,14.19,14.19c7.82,0,14.19-6.37,14.19-14.19C115.85,375.4,109.48,369.04,101.66,369.04z"/>
		</g>
	</g>
	<g>
		<g>
			<path class="st1" d="M179.29,317.97c2.3-0.24,6.03,0.38,8.42,0.38c37.53,0,70.74,29.95,75.07,67.28l-55.49,1.05
				c-3.1,0.06-5.87-1.91-6.85-4.85L179.29,317.97z"/>
			<path class="st3" d="M189.76,318.4l8.59,16.71c0.71,1.4,2.31,2.09,3.82,1.65l0.99-0.29c1.08-0.31,2.24-0.05,3.08,0.7l5.46,4.85
				c1.35,1.2,1.47,3.28,0.26,4.62l-3.85,4.27c-1.31,1.45-1.06,3.71,0.53,4.85l2.04,1.45c0.79,0.56,1.29,1.45,1.36,2.42l0.8,10.65
				c0.07,0.97,0.58,1.86,1.37,2.42l8.52,6.01c1.25,0.88,2.95,0.78,4.08-0.26l1.32-1.21c0.98-0.9,1.32-2.3,0.86-3.55l-1.35-3.64
				c-0.49-1.32-0.08-2.8,1.01-3.68l0.8-0.64c1.53-1.23,1.63-3.53,0.21-4.89c-1.06-1.02-1.31-2.61-0.61-3.91l0.75-1.39
				c0.41-0.76,1.1-1.32,1.93-1.57l3.72-1.12c0.54-0.16,1.12-0.18,1.67-0.06l3.8,0.87c1.71,0.39,3.43-0.65,3.88-2.35l1.13-4.26v-0.43
				C232.26,330,211.85,319.04,189.76,318.4z"/>
			<path class="st2" d="M264.26,385.46c-2.14-18.44-11.22-35.7-25.57-48.58c-13.75-12.35-30.91-19.38-48.56-19.97
				c-0.23-0.06-0.48-0.07-0.72-0.02c-0.57-0.01-1.14-0.04-1.71-0.04c-2.41,0-4.83,0.12-7.19,0.37c-0.82,0.08-1.42,0.82-1.34,1.65
				c0.08,0.82,0.81,1.42,1.65,1.34c2.26-0.23,4.58-0.35,6.88-0.35c0.38,0,0.75,0.02,1.13,0.03l8.18,15.92
				c1.04,2.03,3.38,3.05,5.57,2.41l0.99-0.29c0.58-0.17,1.21-0.03,1.66,0.38l5.46,4.85c0.35,0.31,0.56,0.75,0.59,1.22
				c0.03,0.47-0.13,0.93-0.45,1.28l-3.85,4.27c-0.91,1.01-1.34,2.36-1.2,3.71c0.15,1.35,0.87,2.57,1.97,3.36l2.04,1.45
				c0.43,0.3,0.7,0.78,0.74,1.31l0.8,10.65c0.11,1.42,0.84,2.71,2,3.54l8.52,6.01c0.82,0.58,1.78,0.86,2.74,0.86
				c1.16,0,2.32-0.42,3.22-1.24l1.32-1.21c1.44-1.32,1.93-3.35,1.25-5.18l-1.35-3.64c-0.26-0.71-0.05-1.51,0.55-1.99l0.8-0.64
				c1.06-0.86,1.71-2.14,1.77-3.5c0.06-1.37-0.47-2.69-1.46-3.64c-0.57-0.55-0.7-1.42-0.33-2.11l0.75-1.39
				c0.22-0.41,0.59-0.71,1.04-0.85l3.72-1.12c0.29-0.09,0.6-0.1,0.9-0.03l3.81,0.87c2.51,0.57,5-0.93,5.66-3.42l0.45-1.7
				c8,10.54,13.07,22.86,14.57,35.8c0.09,0.76,0.74,1.33,1.49,1.33c0.06,0,0.12,0,0.17-0.01
				C263.77,387.03,264.36,386.28,264.26,385.46z M243.36,350.94c-0.25,0.92-1.17,1.48-2.1,1.27l-3.81-0.87
				c-0.8-0.18-1.64-0.15-2.43,0.08l-3.72,1.12c-1.21,0.37-2.21,1.18-2.82,2.3l-0.75,1.39c-1.01,1.88-0.65,4.22,0.89,5.7
				c0.37,0.36,0.56,0.83,0.54,1.35c-0.02,0.51-0.25,0.97-0.65,1.3l-0.8,0.64c-1.6,1.29-2.19,3.45-1.47,5.37l1.35,3.64
				c0.25,0.68,0.07,1.43-0.46,1.92l-1.32,1.21c-0.61,0.55-1.54,0.61-2.21,0.14l-8.52-6.01c-0.43-0.31-0.7-0.78-0.74-1.31l-0.8-10.65
				c-0.11-1.42-0.83-2.7-1.99-3.53l-2.04-1.45c-0.42-0.3-0.67-0.74-0.73-1.24c-0.06-0.51,0.1-1,0.44-1.37l3.85-4.27
				c0.86-0.95,1.29-2.18,1.22-3.45c-0.07-1.28-0.64-2.45-1.59-3.3l-5.46-4.85c-1.23-1.09-2.91-1.47-4.49-1.01l-0.99,0.29
				c-0.81,0.24-1.68-0.14-2.07-0.9l-7.4-14.41c16.15,1.07,31.77,7.74,44.41,19.09c2.78,2.49,5.34,5.17,7.69,7.97L243.36,350.94z"/>
		</g>
		<g>
			<g>
				<g>
					<path class="st4" d="M181.05,392.8l-1.97-6.16c-37.17,13.08-66.71,13.32-78.76-2.39c-15.87-20.69,2.8-63.48,43.39-108.53
						l-3.67-11.52c-62.11,62.39-92.87,124.57-71.01,153.06c18.25,23.78,68.66,18.22,129.23-9.76
						C190.33,406.21,183.63,400.61,181.05,392.8z"/>
					<path class="st4" d="M430.97,139.57c-22.83-29.75-95.98-13.59-176.38,34.94l3.14,9.86c61.21-35.09,115.71-45.97,133.25-23.12
						c21.23,27.66-19.33,94.87-91.46,154.11l7.68,24.07c2.94-2.31,5.85-4.64,8.7-6.97l41.21-36.98
						C421.12,232.14,453.16,168.5,430.97,139.57z"/>
				</g>
				<g>
					<path class="st4" d="M169.42,356.33c-22.83,7.39-40.09,7.39-47.09-1.74c-9.23-12.02,1.47-37.16,25.47-66.07l-4.09-12.81
						c-40.59,45.04-59.26,87.84-43.39,108.53c12.05,15.71,41.59,15.47,78.76,2.39L169.42,356.33z"/>
					<path class="st4" d="M390.98,161.25c-17.53-22.85-72.04-11.97-133.25,23.12l3.47,10.89c45.5-25.97,84.05-35.28,95.43-20.44
						c10.38,13.53-4.46,43.67-35.1,77.09c-9.38,10.23-20.23,20.76-32.3,31.22l10.28,32.22c11.78-9.68,22.73-19.56,32.69-29.46
						C383.25,235.22,408.73,184.4,390.98,161.25z"/>
				</g>
			</g>
			<path class="st2" d="M188.12,410.39c-57.65,24.82-101.72,27.05-117.9,5.96c-9.86-12.85-8.85-33.44,2.93-59.55
				c11.66-25.85,33-55.3,61.72-85.17c0.57-0.6,0.56-1.55-0.04-2.12c-0.6-0.57-1.55-0.55-2.12,0.04
				c-60.45,62.86-85.91,121.2-64.87,148.62c7.84,10.22,21.78,15.54,40.53,15.54c1.94,0,3.93-0.06,5.96-0.17
				c20.75-1.16,46.68-8.21,74.98-20.4c0.76-0.33,1.11-1.21,0.78-1.97C189.77,410.42,188.88,410.06,188.12,410.39z M94.92,361.01
				c0.06,0.01,0.13,0.01,0.19,0.01c0.74,0,1.39-0.55,1.49-1.31c2.65-20.69,18.05-48.22,43.38-77.5c0.54-0.63,0.47-1.57-0.15-2.12
				c-0.63-0.54-1.57-0.47-2.12,0.15c-25.71,29.72-41.36,57.81-44.09,79.08C93.52,360.15,94.1,360.91,94.92,361.01z M121.75,394.01
				c-0.81-0.13-1.59,0.42-1.72,1.24c-0.13,0.82,0.42,1.59,1.24,1.72c3.23,0.52,6.73,0.78,10.46,0.78c11.58,0,25.45-2.48,40.79-7.33
				c0.79-0.25,1.23-1.09,0.98-1.88c-0.25-0.79-1.09-1.23-1.88-0.98C151.77,393.83,134.53,396.06,121.75,394.01z M345.25,169.96
				c0.81,0.17,1.61-0.35,1.78-1.16c0.17-0.81-0.35-1.61-1.16-1.78c-16.4-3.46-44.95,4.92-78.32,22.99c-0.73,0.39-1,1.3-0.6,2.03
				c0.27,0.5,0.79,0.79,1.32,0.79c0.24,0,0.49-0.06,0.71-0.18C301.74,174.91,329.53,166.64,345.25,169.96z M121.14,355.51
				c3.91,5.1,10.72,7.67,20.08,7.67c6.19,0,13.49-1.12,21.81-3.38c0.8-0.22,1.27-1.04,1.06-1.84c-0.22-0.8-1.04-1.27-1.84-1.06
				c-19.36,5.25-33.11,4.1-38.73-3.22c-7.87-10.26,0.28-32.6,21.82-59.75c0.51-0.65,0.41-1.59-0.24-2.11
				c-0.65-0.51-1.59-0.41-2.11,0.24C120.21,320.79,112.25,343.92,121.14,355.51z M261.77,180.37c-0.72,0.4-0.98,1.32-0.58,2.04
				c0.4,0.72,1.32,0.99,2.04,0.58c29.36-16.32,56.88-26.95,79.58-30.74c22.83-3.81,39.08-0.38,46.98,9.92
				c16.02,20.88-5.45,68.06-53.43,117.42c-0.58,0.59-0.56,1.54,0.03,2.12c0.29,0.28,0.67,0.42,1.05,0.42c0.39,0,0.78-0.15,1.08-0.45
				c49.82-51.25,70.89-98.88,53.66-121.33C375.02,138,323.84,145.86,261.77,180.37z M389.22,258.13c-8.18,10-17.3,20.15-27.11,30.18
				c-0.58,0.59-0.57,1.54,0.02,2.12c0.29,0.29,0.67,0.43,1.05,0.43c0.39,0,0.78-0.15,1.07-0.45c9.87-10.09,19.05-20.31,27.29-30.37
				c0.52-0.64,0.43-1.59-0.21-2.11C390.69,257.4,389.75,257.49,389.22,258.13z M432.16,138.66c-22.33-29.1-92.09-16.35-173.59,31.73
				c-0.71,0.42-0.95,1.34-0.53,2.05c0.42,0.71,1.34,0.95,2.05,0.53c38.89-22.94,75.68-38.22,106.4-44.18
				c30.93-6,52.81-1.96,63.29,11.69c12.96,16.9,7.13,46.87-16.42,84.39c-0.44,0.7-0.23,1.63,0.47,2.07c0.25,0.16,0.52,0.23,0.8,0.23
				c0.5,0,0.99-0.25,1.27-0.7C440.17,187.8,445.94,156.62,432.16,138.66z M315.13,331.15c-2.55,2.08-5.14,4.17-7.71,6.21
				c-0.65,0.51-0.76,1.46-0.25,2.11c0.3,0.37,0.73,0.57,1.18,0.57c0.33,0,0.65-0.11,0.93-0.32c2.58-2.05,5.19-4.14,7.75-6.24
				c0.64-0.52,0.74-1.47,0.21-2.11C316.71,330.72,315.77,330.63,315.13,331.15z M358.15,196.5c-0.79-0.26-1.64,0.17-1.9,0.95
				c-3.95,11.93-13.12,26.74-26.53,42.84c-0.53,0.64-0.44,1.58,0.19,2.11c0.28,0.23,0.62,0.35,0.96,0.35c0.43,0,0.86-0.18,1.15-0.54
				c13.65-16.39,23.02-31.54,27.08-43.82C359.36,197.61,358.94,196.76,358.15,196.5z"/>
		</g>
		<g>
			<path class="st0" d="M119.15,198.67c-12.53-7.55-29.04-5.93-39.85,4.88c-12.72,12.72-12.72,33.36,0,46.08
				c12.72,12.73,33.36,12.73,46.08,0c2.52-2.52,4.55-5.36,6.07-8.38L119.15,198.67z"/>
			<path class="st2" d="M132.13,239.92c-0.74-0.37-1.64-0.07-2.01,0.66c-1.48,2.95-3.43,5.64-5.79,8c-5.87,5.87-13.68,9.1-21.98,9.1
				c-8.3,0-16.11-3.23-21.98-9.1c-12.12-12.12-12.12-31.84,0-43.96c10.13-10.13,25.76-12.05,38.01-4.66
				c0.71,0.43,1.63,0.2,2.06-0.51c0.43-0.71,0.2-1.63-0.51-2.06c-13.44-8.1-30.58-6-41.68,5.11c-13.29,13.29-13.29,34.91,0,48.2
				c6.44,6.44,15,9.98,24.1,9.98c9.1,0,17.66-3.55,24.1-9.98c2.58-2.58,4.72-5.53,6.35-8.77
				C133.17,241.19,132.87,240.29,132.13,239.92z M79.16,218.4c-3.37,0.46-5.49,4.59-4.83,9.41c0.62,4.53,3.44,7.81,6.57,7.81
				c0.2,0,0.4-0.01,0.61-0.04c3.37-0.46,5.49-4.59,4.83-9.41C85.68,221.35,82.52,217.93,79.16,218.4z M83.36,226.57
				c0.45,3.31-0.83,5.84-2.26,6.03c-1.43,0.21-3.35-1.89-3.8-5.2c-0.45-3.31,0.83-5.84,2.26-6.03c0.06-0.01,0.13-0.01,0.19-0.01
				C81.16,221.36,82.93,223.41,83.36,226.57z M86.1,249.02c1.5,1.6,3.34,2.74,5.16,3.21c0.6,0.15,1.19,0.23,1.76,0.23
				c1.34,0,2.54-0.43,3.43-1.26c2.48-2.32,1.81-6.92-1.51-10.47h0c-1.5-1.6-3.34-2.74-5.16-3.21c-2.04-0.52-3.93-0.15-5.19,1.03
				c-1.26,1.18-1.75,3.04-1.36,5.11C83.58,245.52,84.6,247.42,86.1,249.02z M86.64,240.74c0.32-0.3,0.8-0.45,1.37-0.45
				c0.31,0,0.66,0.05,1.02,0.14c1.26,0.32,2.62,1.18,3.72,2.36c0,0,0,0,0,0c2.29,2.44,2.7,5.24,1.65,6.23
				c-0.49,0.46-1.36,0.58-2.39,0.32c-1.26-0.32-2.62-1.18-3.72-2.36c-1.1-1.17-1.87-2.58-2.12-3.86
				C85.98,242.07,86.15,241.2,86.64,240.74z M100.68,237.92c1.39-0.79,2.19-2.41,2.2-4.46c0.01-1.77-0.56-3.76-1.61-5.6
				c-2.34-4.13-6.25-6.18-8.92-4.68c-1.39,0.79-2.19,2.41-2.2,4.46c-0.01,1.77,0.57,3.76,1.61,5.6c1.82,3.21,4.59,5.17,6.99,5.17
				C99.43,238.41,100.09,238.25,100.68,237.92z M94.37,231.77c-0.78-1.38-1.22-2.87-1.22-4.11c0-0.92,0.25-1.62,0.67-1.85
				c0.13-0.07,0.3-0.11,0.49-0.11c1.07,0,2.95,1.19,4.35,3.65c0.78,1.38,1.22,2.87,1.22,4.11c0,0.92-0.25,1.62-0.67,1.85
				C98.33,235.8,96.01,234.67,94.37,231.77z M84.29,216.13c0.62,0,1.28-0.11,1.94-0.34c1.54-0.53,3.04-1.64,4.22-3.11c0,0,0,0,0,0
				c1.18-1.48,1.92-3.18,2.1-4.81c0.2-1.84-0.38-3.45-1.57-4.4c-1.2-0.96-2.89-1.16-4.64-0.56c-1.54,0.53-3.04,1.64-4.22,3.11
				c-2.63,3.3-2.86,7.34-0.53,9.21C82.34,215.83,83.27,216.13,84.29,216.13z M84.46,207.9c0.82-1.02,1.85-1.81,2.85-2.15
				c0.35-0.12,0.68-0.18,0.97-0.18c0.34,0,0.62,0.08,0.83,0.25c0.38,0.3,0.55,0.94,0.46,1.74c-0.11,1.05-0.65,2.23-1.46,3.26
				c-0.82,1.02-1.85,1.81-2.85,2.15c-0.76,0.26-1.42,0.24-1.8-0.06C82.6,212.21,82.85,209.93,84.46,207.9z"/>
		</g>
		<g>
			<path class="st5" d="M301.61,321.93l-0.04-0.03l-3.02,7.33c-0.06,0.14-0.17,0.21-0.36,0.28c-0.07,0.01-0.14,0-0.22-0.03
				l-2.92-1.19l14.61,45.79c0.96,2.9,0.48,5.99-1.31,8.46c-1.79,2.48-4.57,3.9-7.63,3.9h-92.71c-4.07,0-7.66-2.6-8.92-6.39
				L133.36,174c-0.96-2.9-0.48-5.99,1.31-8.46c1.79-2.48,4.57-3.9,7.63-3.9h92.71c4.07,0,7.66,2.6,8.92,6.39l24.54,76.92
				c1.57-1.84,3.78-3.93,6.6-6.24l-23.34-73.17c-2.38-7.21-9.12-12.09-16.71-12.09H142.3c-5.65,0-10.52,2.6-13.69,6.55l-9.8,10.18
				c-3.8,5.6-4.78,12.65-2.66,19.07l64.91,203.55c2.95,8.94,11.3,14.99,20.72,14.99h94.06c11.29,0,20.71-8.61,21.73-19.85l0.62-8.75
				c0.31-2.49,0.1-5.09-0.76-7.69L301.61,321.93z"/>
			<path class="st2" d="M307.61,382c-1.62,2.24-4.13,3.52-6.9,3.52h-92.71c-3.68,0-6.92-2.32-8.06-5.76l-65.73-206.04
				c-0.87-2.62-0.43-5.41,1.19-7.65c1.62-2.24,4.14-3.52,6.9-3.52h92.71c3.68,0,6.92,2.32,8.06,5.76l24.72,77.49
				c0.4-0.52,0.86-1.06,1.37-1.62l-24.38-76.43c-1.38-4.19-5.31-7.01-9.77-7.01H142.3c-3.35,0-6.39,1.56-8.36,4.27
				c-1.96,2.71-2.49,6.09-1.44,9.26l65.73,206.04c1.38,4.19,5.31,7.01,9.77,7.01h92.71c3.35,0,6.4-1.56,8.36-4.27
				c1.96-2.71,2.48-6.09,1.44-9.26l-14.38-45.07l-2.17-0.88l14.84,46.51C309.67,376.98,309.23,379.76,307.61,382z M318.86,371.05
				l-15.2-47.65l-2.09-1.5L300.7,324l15.3,47.97c0.67,2.05,0.93,4.15,0.78,6.21c-0.03,0.09-0.04,0.19-0.05,0.29l-0.05,0.68
				c-0.35,2.59-1.33,5.08-2.93,7.29c-3.06,4.24-7.82,6.67-13.05,6.67h-92.71c-6.96,0-13.11-4.44-15.28-11.04L127.01,176.1
				c-1.64-4.96-0.82-10.24,2.25-14.48c0.16-0.22,0.32-0.43,0.49-0.64l0.16-0.16c0.04-0.04,0.05-0.09,0.08-0.13
				c3.06-3.66,7.49-5.74,12.32-5.74h92.71c6.96,0,13.11,4.44,15.28,11.04l23.53,73.75c0.77-0.66,1.61-1.34,2.5-2.04l-23.17-72.63
				c-2.59-7.85-9.88-13.12-18.14-13.12H142.3c-5.84,0-11.19,2.56-14.82,7.06l-9.75,10.12c-0.06,0.06-0.11,0.13-0.16,0.2
				c-4.03,5.94-5.09,13.57-2.85,20.37l64.92,203.56c3.16,9.58,12.06,16.02,22.15,16.02h94.06c12.15,0,22.13-9.12,23.23-21.25
				l0.61-8.52C320.04,376.72,319.78,373.84,318.86,371.05z M117.57,188.78c-1.95-5.9-1.05-12.49,2.41-17.66l3.56-3.69
				c-0.61,3.14-0.42,6.42,0.63,9.59l12.86,40.31c-0.01,0.01-0.01,0.01-0.02,0.02l-6.74,11.22L117.57,188.78z M130.98,230.85
				l6.76-11.24l8.31,26.06l-6.76,11.25L130.98,230.85z M182.48,392.35L140.02,259.2l6.76-11.25L189.87,383
				c0.86,2.62,2.26,4.94,4.03,6.88l-6.72,10.22C185.1,397.95,183.47,395.33,182.48,392.35z M295.83,406.29h-94.06
				c-4.58,0-8.87-1.53-12.33-4.17l6.67-10.16c3.3,2.63,7.45,4.16,11.89,4.16h92.71c6.08,0,11.62-2.78,15.26-7.63
				C314.71,398.68,306.18,406.29,295.83,406.29z"/>
		</g>
		<g>
			<g>
				<path class="st6" d="M280.25,234.84l-0.32,0.1c-6.04,4.43-10.18,8.19-12.43,11.2l-0.45,0.6l-39.91,10.57l3.25-7.86
					c1.31-3.19-0.21-6.85-3.4-8.17c-0.99-0.41-2.07-0.56-3.13-0.43c-2.25,0.28-4.18,1.74-5.04,3.82l-19.03,46.12
					c-0.05,0.13-0.04,0.27,0.02,0.39c0.06,0.11,0.18,0.19,0.31,0.22l45.23,7.3l-3.03,7.33c-0.09,0.22,0.02,0.49,0.24,0.58l9.74,4.07
					L280.25,234.84z"/>
				<path class="st6" d="M358.48,297.52c-0.64-1.54-1.85-2.74-3.39-3.38c-0.99-0.41-2.08-0.56-3.14-0.43
					c-2.25,0.28-4.18,1.74-5.04,3.82l-3.24,7.87l-20.84-35.64l0.1-0.75c0.53-3.72,0.24-9.3-0.85-16.6l-0.13-0.31l-33.65,73.42
					l9.67,3.94c0.08,0.03,0.15,0.04,0.22,0.03c0.2-0.06,0.3-0.13,0.36-0.28l3.02-7.33l37.21,26.72c0.09,0.07,0.2,0.09,0.31,0.08
					l0.07-0.01c0.16-0.06,0.24-0.15,0.29-0.26l19.03-46.12C359.12,300.76,359.12,299.06,358.48,297.52z"/>
			</g>
			<polygon class="st7" points="301.37,321.21 339.04,348.26 351.11,319.01 322.48,270.05 			"/>
			<polygon class="st7" points="245.99,298.35 200.21,290.97 212.28,261.72 267.1,247.2 			"/>
			<g>
				
					<ellipse transform="matrix(0.3814 -0.9244 0.9244 0.3814 -17.7852 424.7609)" class="st1" cx="308.49" cy="225.67" rx="24.12" ry="11.5"/>
			</g>
			<path class="st2" d="M359.45,297.11c-0.75-1.8-2.16-3.21-3.96-3.95c-3.73-1.54-8.01,0.24-9.55,3.97l-2.43,5.9l-19.59-33.5
				c0.75-4.68,0.04-11.71-0.79-17.27c-0.04-0.29-0.17-0.55-0.35-0.76l3.56-7.76c6.73-14.58,9.39-30.72,7.69-46.69l-2.53-23.78
				c-0.06-0.55-0.41-1.02-0.92-1.23c-0.51-0.21-1.09-0.12-1.52,0.22l-18.56,15.08c-12.46,10.12-21.96,23.45-27.47,38.52l-2.94,7.97
				c-0.32,0-0.64,0.09-0.91,0.29c-4.5,3.35-9.96,7.84-12.73,11.69l-37.51,9.94l2.43-5.9c1.54-3.73-0.24-8.01-3.97-9.55
				c-3.73-1.54-8.01,0.24-9.55,3.97l-6.96,16.87l-12.07,29.25c-0.17,0.42-0.15,0.9,0.08,1.3c0.22,0.4,0.62,0.68,1.07,0.75
				l43.91,7.08l-2.52,6.1c-0.31,0.76,0.05,1.64,0.81,1.96l9.32,3.9l-5.58,15.14c-0.28,0.76,0.09,1.6,0.84,1.91l32.91,13.58
				c0.19,0.08,0.38,0.11,0.57,0.11c0.57,0,1.11-0.33,1.36-0.88l6.72-14.67l9.25,3.77c0.19,0.08,0.38,0.11,0.57,0.11
				c0.59,0,1.15-0.35,1.39-0.93l2.52-6.1l36.13,25.94c0.26,0.19,0.56,0.28,0.88,0.28c0.14,0,0.28-0.02,0.41-0.06
				c0.44-0.13,0.8-0.45,0.97-0.87l12.07-29.25l6.96-16.87C360.2,300.9,360.2,298.92,359.45,297.11z M285.85,226.9
				c5.32-14.57,14.5-27.45,26.54-37.23l16.42-13.33l2.24,21.03c1.64,15.43-0.93,31.03-7.44,45.12l-11.94,26.05
				c-7.68-0.83-14.9,3.37-17.98,10.46l-20.51,47.26l-10.31-4.26l18.49-48.44c2.73-7.15,0.57-15.11-5.37-19.9L285.85,226.9z
				 M260.09,320.86l-7.68-3.17l2.24-6.07c0.08-0.11,0.16-0.22,0.22-0.35c0.07-0.17,0.11-0.35,0.11-0.53l19.92-54.07
				c4.33,4.02,5.81,10.22,3.67,15.83L260.09,320.86z M220.62,245.42c0.91-2.2,3.43-3.25,5.63-2.34c2.2,0.91,3.25,3.43,2.34,5.63
				l-3.31,8.01l-10.47,2.77L220.62,245.42z M213.38,262.98l51.18-13.56l-15.51,37.58l-44.08-3.65L213.38,262.98z M202.32,289.79
				l1.93-4.69l44.08,3.65l-3.27,7.93L202.32,289.79z M244.7,305.4l23.13-56.05c1.02-2.47,4.72-6.26,10.54-10.83l-25.84,70.14
				L244.7,305.4z M256.81,329.44l-7.58-3.13l2.55-6.93l7.66,3.16L256.81,329.44z M259.59,330.58l2.63-6.89l10.24,4.22l-2.94,6.77
				L259.59,330.58z M279.47,338.79l-7.18-2.96l2.94-6.77l7.31,3.02L279.47,338.79z M283.29,330.44l-7.35-3.03l20.49-47.21
				c2.42-5.57,7.91-8.97,13.89-8.75L283.29,330.44z M297.31,327.11l-7.75-3.16l31.06-67.77c0.88,7.22,0.82,12.44-0.19,14.88
				L297.31,327.11z M338.38,345.93l-35.16-25.25l3.27-7.93l33.82,28.5L338.38,345.93z M341.03,339.5L307.21,311l15.51-37.58
				l26.73,45.7L341.03,339.5z M356.68,301.56l-5.81,14.07l-5.47-9.35l3.31-8.01c0.91-2.2,3.43-3.25,5.63-2.34
				c1.06,0.44,1.89,1.27,2.34,2.33C357.12,299.33,357.12,300.5,356.68,301.56z M298.72,249.35c0.89,0.37,1.83,0.55,2.82,0.55
				c2.78,0,5.87-1.45,8.98-4.25c3.91-3.53,7.46-8.86,10-15.02c2.54-6.16,3.79-12.45,3.5-17.71c-0.3-5.65-2.35-9.54-5.75-10.94
				c-6.74-2.78-16.31,5.44-21.79,18.72C290.99,233.99,291.98,246.57,298.72,249.35z M299.24,221.85
				c5.16-12.51,13.41-18.94,17.88-17.1c2.24,0.93,3.66,3.96,3.9,8.33c0.26,4.82-0.91,10.65-3.28,16.4
				c-2.37,5.75-5.65,10.7-9.24,13.94c-3.25,2.93-6.4,4.08-8.64,3.15C295.4,244.74,294.08,234.36,299.24,221.85z"/>
		</g>
		<g>
			
				<ellipse transform="matrix(0.6152 -0.7884 0.7884 0.6152 -98.6894 221.8493)" class="st3" cx="177.91" cy="212.02" rx="12.22" ry="14.11"/>
			<path class="st2" d="M179.76,226.47c-3.75,0-7.67-1.38-10.91-4.14c-3.42-2.92-5.54-6.97-5.84-11.13
				c-0.25-3.51,0.83-6.83,3.04-9.34c4.99-5.67,14.37-5.75,20.9-0.17c3.42,2.92,5.55,6.97,5.84,11.13c0.25,3.51-0.83,6.83-3.04,9.34
				C187.24,225.04,183.59,226.47,179.76,226.47z M176.04,200.55c-2.99,0-5.8,1.1-7.74,3.3l0,0c-1.68,1.9-2.49,4.44-2.3,7.15
				c0.24,3.36,1.99,6.66,4.8,9.06c5.29,4.52,12.79,4.58,16.7,0.13c1.68-1.9,2.49-4.44,2.3-7.15c-0.24-3.36-1.99-6.66-4.8-9.06
				C182.33,201.69,179.1,200.55,176.04,200.55z M167.18,202.86L167.18,202.86L167.18,202.86z"/>
		</g>
		<path class="st7" d="M303.24,126.52l-2.12-2.12l-4.2,4.2l2.12,2.12L303.24,126.52z M289.05,136.47l2.12,2.12l4.2-4.2l-2.12-2.12
			L289.05,136.47z M289.05,126.52l4.2,4.2l2.12-2.12l-4.2-4.2L289.05,126.52z M296.92,134.39l4.2,4.2l2.12-2.12l-4.2-4.2
			L296.92,134.39z"/>
		<path class="st2" d="M220.26,201.78l-2.27,2.63c-0.54,0.63-0.47,1.57,0.15,2.12c0.28,0.25,0.63,0.37,0.98,0.37
			c0.42,0,0.84-0.18,1.14-0.52l2.27-2.63c0.54-0.63,0.47-1.57-0.15-2.12C221.75,201.09,220.8,201.16,220.26,201.78z M226.73,188.76
			l-0.5-3.72c-0.11-0.82-0.87-1.4-1.69-1.29c-0.82,0.11-1.4,0.87-1.29,1.69l0.5,3.72c0.1,0.75,0.75,1.3,1.48,1.3
			c0.07,0,0.13,0,0.2-0.01C226.27,190.34,226.84,189.59,226.73,188.76z M219.75,197.05c0-0.83-0.67-1.5-1.5-1.5h-3.72
			c-0.83,0-1.5,0.67-1.5,1.5c0,0.83,0.67,1.5,1.5,1.5h3.72C219.08,198.55,219.75,197.88,219.75,197.05z M218.85,192.46
			c0.29,0.25,0.64,0.37,0.99,0.37c0.42,0,0.83-0.17,1.13-0.51c0.55-0.62,0.49-1.57-0.13-2.12l-2.98-2.63
			c-0.62-0.55-1.57-0.49-2.12,0.13c-0.55,0.62-0.49,1.57,0.13,2.12L218.85,192.46z M238.13,195.55h-3.71c-0.83,0-1.5,0.67-1.5,1.5
			c0,0.83,0.67,1.5,1.5,1.5h3.71c0.83,0,1.5-0.67,1.5-1.5C239.63,196.22,238.96,195.55,238.13,195.55z M233.81,201.64
			c-0.62-0.55-1.57-0.49-2.12,0.13c-0.55,0.62-0.49,1.57,0.13,2.12l2.98,2.63c0.29,0.25,0.64,0.37,0.99,0.37
			c0.42,0,0.83-0.17,1.13-0.51c0.55-0.62,0.49-1.57-0.13-2.12L233.81,201.64z M234.69,189.69c0.54-0.63,0.47-1.57-0.15-2.12
			c-0.63-0.54-1.57-0.47-2.12,0.15l-2.27,2.63c-0.54,0.63-0.47,1.57,0.15,2.12c0.28,0.25,0.63,0.37,0.98,0.37
			c0.42,0,0.84-0.18,1.13-0.52L234.69,189.69z M228.91,204.93c-0.11-0.82-0.87-1.4-1.69-1.29c-0.82,0.11-1.4,0.87-1.29,1.69
			l0.5,3.72c0.1,0.75,0.75,1.3,1.48,1.3c0.07,0,0.13,0,0.2-0.01c0.82-0.11,1.4-0.87,1.29-1.69L228.91,204.93z"/>
		<g>
			<g>
				<path class="st6" d="M233,87.71c-1.06,3.22-1.52,6.52-1.44,9.77c-0.01,0.01-0.01,0.01-0.02,0.02
					c0.16,6.22,2.33,12.25,6.17,17.15c16.06-0.91,38.81-9.08,51.78-18.6c-0.16-6.22-2.32-12.25-6.16-17.15c-0.01,0-0.02,0-0.03,0
					c-2.01-2.56-4.46-4.81-7.33-6.62c0.01,0,0.01,0,0.02,0c-0.99-0.63-2.03-1.21-3.12-1.72c-14.48-6.83-31.75-0.62-38.57,13.86
					c-0.51,1.09-0.94,2.2-1.31,3.31C232.99,87.72,233,87.72,233,87.71z"/>
				<path class="st6" d="M245.03,121.26c0.99,0.63,2.03,1.21,3.12,1.72c14.48,6.83,31.75,0.62,38.57-13.86
					c0.51-1.09,0.94-2.2,1.31-3.31C274.94,112.55,259.43,118.12,245.03,121.26z"/>
			</g>
			<g>
				<path class="st1" d="M296.03,69.55c-6.13,0.22-12.96,1.18-20.06,2.73c2.87,1.81,5.32,4.06,7.33,6.62
					c0.29-0.02,0.59-0.05,0.87-0.06c16.38-0.67,19.07,6.81,6,16.71c-13.06,9.9-36.93,18.48-53.31,19.15
					c-16.38,0.67-19.07-6.81-6-16.71c0.22-0.17,0.48-0.34,0.71-0.51c-0.08-3.25,0.38-6.55,1.44-9.77
					c-6.46,3.32-12.34,6.92-17.21,10.66c-19.62,15.04-15.49,26.51,9.2,25.62c24.7-0.88,60.62-13.79,80.24-28.82
					C324.85,80.13,320.73,68.66,296.03,69.55z"/>
				<path class="st2" d="M318.66,75.88c-1.98-5.5-10.04-8.28-22.69-7.83c-5.91,0.21-12.55,1.1-19.72,2.64
					c-0.92-0.56-1.82-1.06-2.74-1.49c-7.37-3.47-15.64-3.87-23.3-1.12c-7.66,2.75-13.8,8.32-17.27,15.69
					c-0.43,0.92-0.81,1.88-1.17,2.89c-6.51,3.38-12.2,6.91-16.89,10.51c-10.05,7.7-14.49,14.97-12.52,20.48
					c1.84,5.12,8.93,7.88,20.09,7.88c0.84,0,1.71-0.02,2.6-0.05c6.03-0.22,12.73-1.15,19.71-2.65c0.92,0.56,1.84,1.07,2.76,1.5
					c4.13,1.95,8.54,2.93,12.98,2.93c3.47,0,6.96-0.6,10.33-1.81c7.66-2.75,13.8-8.32,17.27-15.69c0.44-0.92,0.82-1.89,1.17-2.91
					c6.33-3.28,12.1-6.83,16.89-10.5C316.2,88.66,320.64,81.39,318.66,75.88z M233.06,97.45c-0.08-3.16,0.38-6.28,1.36-9.26
					c0.02-0.06,0.04-0.13,0.05-0.19c0.35-1.05,0.74-2.01,1.18-2.94c3.13-6.64,8.66-11.66,15.57-14.15
					c6.91-2.48,14.37-2.12,21.01,1.01c0.93,0.44,1.84,0.93,2.78,1.52c0.05,0.04,0.11,0.08,0.17,0.12c2.66,1.68,5,3.79,6.95,6.28
					c0.05,0.06,0.11,0.12,0.17,0.18c3.37,4.39,5.37,9.79,5.67,15.3c0.15,2.79-17.49,9.48-19.79,10.39
					c-5.17,2.07-10.49,3.77-15.91,5.09c-1.39,0.34-12.92,3.58-13.85,2.32c-3.28-4.45-5.17-9.88-5.37-15.41
					C233.06,97.62,233.07,97.53,233.06,97.45z M286.14,80.3c5.94,0,9.87,1.24,10.66,3.43c0.79,2.19-1.46,5.65-6.04,9.43
					C290.21,88.6,288.62,84.18,286.14,80.3z M234.89,113.24c-5.94,0-9.87-1.24-10.66-3.43c-0.79-2.19,1.46-5.65,6.04-9.43
					C230.82,104.94,232.41,109.36,234.89,113.24z M249.23,121.83c11.9-2.92,23.52-7.06,34.59-12.29c0.44-0.21,0.9-0.41,1.33-0.62
					C278.63,122.17,262.7,127.9,249.23,121.83z M304.32,93.98c-4.8,3.68-10.59,7.23-16.97,10.5c-12.91,6.64-28.46,12.22-42.65,15.32
					c-7,1.53-13.73,2.48-19.76,2.69c-11.08,0.4-18.28-1.74-19.75-5.85c-1.48-4.11,2.72-10.34,11.52-17.08
					c2.06-1.58,4.2-3.06,6.39-4.46c2.3-1.47,4.92-3.48,7.5-4.34c-0.91,0.3,0.18,5.41-0.64,6.03c-8.82,6.69-9.52,11.32-8.55,14.02
					c2.04,5.68,11,5.66,15.77,5.39c9.92-0.56,19.98-3.14,29.26-6.6c8.59-3.2,16.8-7.46,24.34-12.67c3.95-2.73,10.89-8.54,8.85-14.22
					c-0.97-2.71-4.46-5.84-15.52-5.38c-0.04,0-0.09,0-0.13,0.01c-0.38-0.46-0.78-0.91-1.19-1.34c-0.09-0.1-0.19-0.19-0.28-0.29
					c-0.47-0.5-0.96-0.98-1.47-1.44c-0.06-0.05-0.11-0.11-0.17-0.16c-0.4-0.36-0.82-0.72-1.24-1.06c5.95-1.16,11.47-1.83,16.45-2.01
					c11.08-0.39,18.28,1.74,19.75,5.85C317.32,81.01,313.12,87.24,304.32,93.98z"/>
			</g>
		</g>
		<path class="st8" d="M148.46,133.21c1.24,0.82,2.6,1.4,4.05,1.73l0.66-2.93c-1.09-0.25-2.12-0.69-3.06-1.3L148.46,133.21z
			 M142.96,124.04c0.13,1.48,0.53,2.91,1.18,4.24l2.7-1.31c-0.49-1.01-0.79-2.09-0.89-3.2L142.96,124.04z M148.77,116.19l-2.08-2.16
			c-1.07,1.03-1.94,2.23-2.58,3.56l2.71,1.3C147.31,117.88,147.96,116.97,148.77,116.19z M158.12,131.78l0.93,2.85
			c1.41-0.46,2.71-1.16,3.87-2.09l-1.87-2.34C160.17,130.9,159.18,131.44,158.12,131.78z M164.55,122.92c0,1.13-0.2,2.23-0.59,3.27
			l2.81,1.05c0.52-1.38,0.78-2.84,0.78-4.33v-0.04L164.55,122.92z M152.46,110.91l0.67,2.92c1.08-0.25,2.23-0.3,3.33-0.16l0.39-2.97
			C155.4,110.51,153.88,110.58,152.46,110.91z M162.88,113.26l-1.86,2.35c0.88,0.7,1.62,1.54,2.2,2.5l2.57-1.55
			C165.02,115.29,164.04,114.18,162.88,113.26z"/>
		<g>
			
				<ellipse transform="matrix(0.9872 -0.1596 0.1596 0.9872 -12.4903 54.5721)" class="st9" cx="333.5" cy="105.05" rx="11.8" ry="11.8"/>
			<path class="st2" d="M333.5,91.75c-7.33,0-13.3,5.97-13.3,13.3c0,1.97,0.44,3.83,1.21,5.52c0.03,0.08,0.07,0.16,0.12,0.24
				c2.15,4.46,6.7,7.54,11.97,7.54c7.33,0,13.3-5.97,13.3-13.3C346.8,97.71,340.83,91.75,333.5,91.75z M333.5,115.35
				c-3.74,0-7.01-2.01-8.81-5l6.59-6.59c0.59-0.59,0.59-1.54,0-2.12c-0.59-0.59-1.54-0.59-2.12,0l-5.69,5.69
				c-0.17-0.73-0.26-1.5-0.26-2.28c0-5.68,4.62-10.3,10.3-10.3c3.85,0,7.21,2.13,8.98,5.27l-6.91,6.91c-0.59,0.59-0.59,1.54,0,2.12
				c0.29,0.29,0.68,0.44,1.06,0.44c0.38,0,0.77-0.15,1.06-0.44l5.93-5.93c0.12,0.62,0.19,1.27,0.19,1.92
				C343.8,110.73,339.18,115.35,333.5,115.35z"/>
		</g>
		<g>
			<g>
				
					<ellipse transform="matrix(0.7071 -0.7071 0.7071 0.7071 -53.8391 356.3221)" class="st6" cx="403.2" cy="243.15" rx="12.81" ry="12.81"/>
				<path class="st2" d="M403.2,257.47c-7.89,0-14.31-6.42-14.31-14.31c0-7.89,6.42-14.31,14.31-14.31
					c7.89,0,14.32,6.42,14.32,14.31C417.51,251.04,411.09,257.47,403.2,257.47z M403.2,231.84c-6.24,0-11.31,5.08-11.31,11.31
					c0,6.24,5.08,11.31,11.31,11.31c6.24,0,11.32-5.08,11.32-11.31C414.51,236.91,409.44,231.84,403.2,231.84z"/>
			</g>
		</g>
		<g>
			<g>
				
					<ellipse transform="matrix(0.4067 -0.9136 0.9136 0.4067 48.9918 434.4434)" class="st0" cx="358.96" cy="179.5" rx="10.82" ry="10.82"/>
				<path class="st2" d="M358.96,191.83c-6.8,0-12.33-5.53-12.33-12.32s5.53-12.33,12.33-12.33s12.32,5.53,12.32,12.33
					S365.75,191.83,358.96,191.83z M358.96,170.18c-5.14,0-9.33,4.18-9.33,9.33c0,5.14,4.18,9.32,9.33,9.32
					c5.14,0,9.32-4.18,9.32-9.32C368.28,174.36,364.1,170.18,358.96,170.18z"/>
			</g>
		</g>
		<path class="st6" d="M382.81,313.99h3v-5.94h-3V313.99z M375.77,306.96h5.94v-3h-5.94V306.96z M382.81,302.87h3v-5.94h-3V302.87z
			 M386.9,303.96v3h5.94v-3H386.9z"/>
	</g>
</g>
<g id="title">
</g>
</svg>
